<svg width="14" height="14" viewBox="0 0 14 14" fill="none" xmlns="http://www.w3.org/2000/svg">
<path d="M3.11301 10.9994C3.25074 10.609 3.50617 10.271 3.84407 10.0319C4.18198 9.79279 4.58573 9.66439 4.99967 9.66439C5.41362 9.66439 5.81737 9.79279 6.15527 10.0319C6.49318 10.271 6.74861 10.609 6.88634 10.9994H13.6663V12.3327H6.88634C6.74861 12.723 6.49318 13.0611 6.15527 13.3002C5.81737 13.5393 5.41362 13.6677 4.99967 13.6677C4.58573 13.6677 4.18198 13.5393 3.84407 13.3002C3.50617 13.0611 3.25074 12.723 3.11301 12.3327H0.333008V10.9994H3.11301ZM7.11301 6.33269C7.25074 5.94233 7.50617 5.60431 7.84407 5.36521C8.18198 5.12612 8.58573 4.99772 8.99967 4.99772C9.41362 4.99772 9.81737 5.12612 10.1553 5.36521C10.4932 5.60431 10.7486 5.94233 10.8863 6.33269H13.6663V7.66602H10.8863C10.7486 8.05638 10.4932 8.3944 10.1553 8.6335C9.81737 8.87259 9.41362 9.00099 8.99967 9.00099C8.58573 9.00099 8.18198 8.87259 7.84407 8.6335C7.50617 8.3944 7.25074 8.05638 7.11301 7.66602H0.333008V6.33269H7.11301ZM3.11301 1.66602C3.25074 1.27567 3.50617 0.937644 3.84407 0.698548C4.18198 0.459452 4.58573 0.331055 4.99967 0.331055C5.41362 0.331055 5.81737 0.459452 6.15527 0.698548C6.49318 0.937644 6.74861 1.27567 6.88634 1.66602H13.6663V2.99936H6.88634C6.74861 3.38971 6.49318 3.72773 6.15527 3.96683C5.81737 4.20592 5.41362 4.33432 4.99967 4.33432C4.58573 4.33432 4.18198 4.20592 3.84407 3.96683C3.50617 3.72773 3.25074 3.38971 3.11301 2.99936H0.333008V1.66602H3.11301ZM4.99967 2.99936C5.17649 2.99936 5.34605 2.92912 5.47108 2.80409C5.5961 2.67907 5.66634 2.5095 5.66634 2.33269C5.66634 2.15588 5.5961 1.98631 5.47108 1.86128C5.34605 1.73626 5.17649 1.66602 4.99967 1.66602C4.82286 1.66602 4.65329 1.73626 4.52827 1.86128C4.40325 1.98631 4.33301 2.15588 4.33301 2.33269C4.33301 2.5095 4.40325 2.67907 4.52827 2.80409C4.65329 2.92912 4.82286 2.99936 4.99967 2.99936ZM8.99967 7.66602C9.17649 7.66602 9.34606 7.59578 9.47108 7.47076C9.5961 7.34574 9.66634 7.17617 9.66634 6.99936C9.66634 6.82254 9.5961 6.65298 9.47108 6.52795C9.34606 6.40293 9.17649 6.33269 8.99967 6.33269C8.82286 6.33269 8.65329 6.40293 8.52827 6.52795C8.40325 6.65298 8.33301 6.82254 8.33301 6.99936C8.33301 7.17617 8.40325 7.34574 8.52827 7.47076C8.65329 7.59578 8.82286 7.66602 8.99967 7.66602ZM4.99967 12.3327C5.17649 12.3327 5.34605 12.2625 5.47108 12.1374C5.5961 12.0124 5.66634 11.8428 5.66634 11.666C5.66634 11.4892 5.5961 11.3196 5.47108 11.1946C5.34605 11.0696 5.17649 10.9994 4.99967 10.9994C4.82286 10.9994 4.65329 11.0696 4.52827 11.1946C4.40325 11.3196 4.33301 11.4892 4.33301 11.666C4.33301 11.8428 4.40325 12.0124 4.52827 12.1374C4.65329 12.2625 4.82286 12.3327 4.99967 12.3327Z" fill="#3A434B"/>
</svg>
