<svg width="10" height="14" viewBox="0 0 10 14" fill="none" xmlns="http://www.w3.org/2000/svg">
<path d="M4.2002 0.600098C3.75837 0.600098 3.4002 0.95827 3.4002 1.4001C3.4002 1.84193 3.75837 2.2001 4.2002 2.2001H5.8002C6.24202 2.2001 6.6002 1.84193 6.6002 1.4001C6.6002 0.95827 6.24202 0.600098 5.8002 0.600098H4.2002Z" fill="#B3BECF"/>
<path fill-rule="evenodd" clip-rule="evenodd" d="M0.200195 3.0001C0.200195 2.11644 0.91654 1.4001 1.8002 1.4001C1.8002 2.72558 2.87471 3.8001 4.2002 3.8001H5.8002C7.12568 3.8001 8.2002 2.72558 8.2002 1.4001C9.08385 1.4001 9.8002 2.11644 9.8002 3.0001V11.8001C9.8002 12.6838 9.08385 13.4001 8.2002 13.4001H1.8002C0.91654 13.4001 0.200195 12.6838 0.200195 11.8001V3.0001ZM2.6002 6.2001C2.15837 6.2001 1.8002 6.55827 1.8002 7.0001C1.8002 7.44193 2.15837 7.8001 2.6002 7.8001H2.6082C3.05002 7.8001 3.4082 7.44193 3.4082 7.0001C3.4082 6.55827 3.05002 6.2001 2.6082 6.2001H2.6002ZM5.0002 6.2001C4.55837 6.2001 4.2002 6.55827 4.2002 7.0001C4.2002 7.44193 4.55837 7.8001 5.0002 7.8001H7.4002C7.84202 7.8001 8.2002 7.44193 8.2002 7.0001C8.2002 6.55827 7.84202 6.2001 7.4002 6.2001H5.0002ZM2.6002 9.4001C2.15837 9.4001 1.8002 9.75827 1.8002 10.2001C1.8002 10.6419 2.15837 11.0001 2.6002 11.0001H2.6082C3.05002 11.0001 3.4082 10.6419 3.4082 10.2001C3.4082 9.75827 3.05002 9.4001 2.6082 9.4001H2.6002ZM5.0002 9.4001C4.55837 9.4001 4.2002 9.75827 4.2002 10.2001C4.2002 10.6419 4.55837 11.0001 5.0002 11.0001H7.4002C7.84202 11.0001 8.2002 10.6419 8.2002 10.2001C8.2002 9.75827 7.84202 9.4001 7.4002 9.4001H5.0002Z" fill="#B3BECF"/>
</svg>
