<svg width="12" height="12" viewBox="0 0 12 12" fill="none" xmlns="http://www.w3.org/2000/svg">
<path d="M1.71429 0C0.767512 0 0 0.767512 0 1.71429V4.78571C0 5.73249 0.767512 6.5 1.71429 6.5H3.42857C4.37535 6.5 5.14286 5.73249 5.14286 4.78571V1.71429C5.14286 0.767512 4.37535 0 3.42857 0H1.71429Z" fill="white"/>
<path d="M1.71429 7.78571C0.767512 7.78571 0 8.55323 0 9.5V10.2857C0 11.2325 0.767512 12 1.71429 12H3.42857C4.37535 12 5.14286 11.2325 5.14286 10.2857V9.5C5.14286 8.55323 4.37535 7.78571 3.42857 7.78571H1.71429Z" fill="white"/>
<path d="M6.85714 1.71429C6.85714 0.767512 7.62465 0 8.57143 0H10.2857C11.2325 0 12 0.767512 12 1.71429V2.40593C12 3.35271 11.2325 4.12022 10.2857 4.12022H8.57143C7.62465 4.12022 6.85714 3.35271 6.85714 2.40593V1.71429Z" fill="white"/>
<path d="M6.85714 7.21429C6.85714 6.26751 7.62465 5.5 8.57143 5.5H10.2857C11.2325 5.5 12 6.26751 12 7.21429V10.2857C12 11.2325 11.2325 12 10.2857 12H8.57143C7.62465 12 6.85714 11.2325 6.85714 10.2857V7.21429Z" fill="white"/>
</svg>
