<svg width="14" height="12" viewBox="0 0 14 12" fill="none" xmlns="http://www.w3.org/2000/svg">
<path d="M5.39961 5.1999C6.72509 5.1999 7.79961 4.12539 7.79961 2.7999C7.79961 1.47442 6.72509 0.399902 5.39961 0.399902C4.07413 0.399902 2.99961 1.47442 2.99961 2.7999C2.99961 4.12539 4.07413 5.1999 5.39961 5.1999Z" fill="#B3BECF"/>
<path d="M5.39961 6.7999C8.05058 6.7999 10.1996 8.94894 10.1996 11.5999H0.599609C0.599609 8.94894 2.74864 6.7999 5.39961 6.7999Z" fill="#B3BECF"/>
<path d="M11.7996 3.5999C11.7996 3.15807 11.4414 2.7999 10.9996 2.7999C10.5578 2.7999 10.1996 3.15807 10.1996 3.5999V4.3999H9.39961C8.95778 4.3999 8.59961 4.75807 8.59961 5.1999C8.59961 5.64173 8.95778 5.9999 9.39961 5.9999H10.1996V6.7999C10.1996 7.24173 10.5578 7.5999 10.9996 7.5999C11.4414 7.5999 11.7996 7.24173 11.7996 6.7999V5.9999H12.5996C13.0414 5.9999 13.3996 5.64173 13.3996 5.1999C13.3996 4.75807 13.0414 4.3999 12.5996 4.3999H11.7996V3.5999Z" fill="#B3BECF"/>
</svg>
